#!OML:ASF F:\twosubjects\two\wednesday\Session 1\rory1.ASF
:FULLY-SPECIFIED
:DEGREES
215
root 17.7525 18.2903 -11.8275 -175.442 -4.28309 180.515
lowerback 1.57038 -0.435525 -0.505123
upperback 0.706707 -0.617762 1.72838
thorax -0.13224 -0.327268 2.06397
lowerneck -14.9195 -1.88837 -2.64626
upperneck 14.1814 -1.81977 -1.73566
head 6.7954 -1.22616 -0.319605
rclavicle 1.13804e-014 2.10712e-014
rhumerus -37.7982 -20.2151 -71.9206
rradius 22.5754
rwrist 12.5917
rhand -13.2276 33.1259
rfingers 7.12502
rthumb 12.8738 3.54298
lclavicle 1.13804e-014 2.10712e-014
lhumerus -36.1185 5.36479 87.2273
lradius 30.5735
lwrist 4.25388
lhand -24.9796 21.2335
lfingers 7.12502
lthumb 1.53123 51.2077
rfemur -17.6712 8.27445 22.4811
rtibia 26.4938
rfoot -9.90498 -6.95861
rtoes 12.7445
lfemur -14.0282 -2.03477 -18.6452
ltibia 62.1373
lfoot 8.22213 -1.82595
ltoes -11.2882
216
root 17.7708 18.2913 -11.9846 -175.561 -4.15624 180.583
lowerback 1.89446 -0.23883 -0.622695
upperback 0.596182 -0.352994 1.71283
thorax -0.436831 -0.191316 2.11227
lowerneck -14.8716 -2.0117 -2.7873
upperneck 14.3923 -2.02368 -1.3369
head 6.86141 -1.29899 -0.189833
rclavicle 8.89561e-015 -9.54166e-015
rhumerus -37.7953 -20.0714 -71.9963
rradius 22.8745
rwrist 12.2938
rhand -13.4863 32.3122
rfingers 7.12502
rthumb 12.6244 2.71372
lclavicle 8.89561e-015 -9.54166e-015
lhumerus -34.5418 5.46135 86.9291
lradius 27.7471
lwrist 3.46994
lhand -23.9977 23.3708
lfingers 7.12502
lthumb 2.47959 53.3361
rfemur -16.9731 8.19283 22.7921
rtibia 26.4908
rfoot -10.1691 -6.74641
rtoes 12.4869
lfemur -15.3142 -1.68652 -18.4306
ltibia 63.3367
lfoot 6.99338 -1.8357
ltoes -13.2541
217
root 17.7878 18.2816 -12.1397 -175.484 -4.16444 180.779
lowerback 1.59649 -0.0706141 -0.432413
upperback 0.78202 -0.132067 1.70059
thorax -0.0892513 -0.0853408 1.98663
lowerneck -14.775 -2.24891 -3.02763
upperneck 13.8582 -2.31852 -1.13331
head 6.67989 -1.42141 -0.108876
rclavicle -3.77691e-015 1.19271e-015
rhumerus -37.1745 -20.0796 -72.2485
rradius 23.1563
rwrist 12.1756
rhand -13.3696 31.9421
rfingers 7.12502
rthumb 12.7369 2.35057
lclavicle -3.77691e-015 1.19271e-015
lhumerus -33.5064 5.93891 86.5667
lradius 25.9435
lwrist 2.29275
lhand -23.4993 23.8662
lfingers 7.12502
lthumb 2.9609 53.8254
rfemur -16.5288 8.05476 23.2085
rtibia 26.5692
rfoot -10.595 -6.62127
rtoes 13.4412
lfemur -16.7569 -1.50999 -18.0964
ltibia 64.3394
lfoot 5.87582 -1.98125
ltoes -15.4112
218
root 17.8055 18.2709 -12.2936 -175.397 -4.24392 180.915
lowerback 1.56753 0.0115683 -0.391063
upperback 0.696328 -0.0195342 1.70933
thorax -0.165025 -0.0274511 1.97055
lowerneck -14.1471 -2.37435 -3.11171
upperneck 13.276 -2.49556 -1.15149
head 6.3886 -1.50301 -0.105662
rclavicle 1.15295e-014 3.18055e-015
rhumerus -36.9323 -20.3005 -72.1732
rradius 23.1624
rwrist 12.5448
rhand -13.37 32.9119
rfingers 7.12502
rthumb 12.7365 3.32032
lclavicle 1.15295e-014 3.18055e-015
lhumerus -33.8376 6.74076 86.0118
lradius 25.0344
lwrist 0.939551
lhand -23.5201 23.4007
lfingers 7.12502
lthumb 2.94079 53.3601
rfemur -16.1418 8.04438 23.5446
rtibia 26.7253
rfoot -11.0548 -6.73188
rtoes 14.7249
lfemur -18.1522 -1.58123 -17.8127
ltibia 65.1664
lfoot 5.10443 -2.21365
ltoes -13.9088
219
root 17.823 18.2675 -12.4502 -175.436 -4.29188 180.765
lowerback 1.76165 0.0371817 -0.749961
upperback 0.554433 0.0161484 1.67555
thorax -0.420467 -0.00512404 2.13722
lowerneck -13.7872 -2.39757 -3.16683
upperneck 13.2508 -2.55166 -1.05472
head 6.3219 -1.52624 -0.0665446
rclavicle -4.17448e-015 -1.27222e-014
rhumerus -36.9003 -20.1509 -72.2185
rradius 23.3095
rwrist 12.8289
rhand -13.81 33.3769
rfingers 7.12502
rthumb 12.3123 3.7594
lclavicle -4.17448e-015 -1.27222e-014
lhumerus -34.6633 7.59255 85.3715
lradius 24.3227
lwrist -0.106784
lhand -23.8377 22.1437
lfingers 7.12502
lthumb 2.63406 52.1071
rfemur -15.6165 7.95147 23.5939
rtibia 26.9239
rfoot -11.4012 -6.86056
rtoes 14.4899
lfemur -19.3736 -1.684 -17.9013
ltibia 65.8257
lfoot 4.31789 -2.44345
ltoes -11.9279
220
root 17.8345 18.262 -12.6058 -175.354 -4.18425 180.61
lowerback 1.74684 0.10672 -0.965955
upperback 0.538677 0.109549 1.54849
thorax -0.432442 0.0439532 2.12617
lowerneck -14.033 -2.44661 -3.12067
upperneck 13.5252 -2.63789 -0.910366
head 6.45332 -1.55664 -0.0416306
rclavicle 1.98785e-015 -1.19271e-015
rhumerus -36.6347 -19.7976 -72.595
rradius 23.7718
rwrist 12.2841
rhand -13.8189 33.1311
rfingers 7.12502
rthumb 12.3037 3.5131
lclavicle 1.98785e-015 -1.19271e-015
lhumerus -35.0739 8.68631 84.5263
lradius 23.4202
lwrist -1.20634
lhand -23.578 20.922
lfingers 7.12502
lthumb 2.88488 50.8822
rfemur -15.2373 7.83746 23.5808
rtibia 27.1091
rfoot -11.6477 -6.81177
rtoes 13.6326
lfemur -20.6878 -1.64287 -18.0946
ltibia 66.3328
lfoot 3.27909 -2.51214
ltoes -12.4665
221
root 17.851 18.2504 -12.7478 -175.24 -3.94663 181.043
lowerback 1.77172 0.243844 -0.574944
upperback 0.53972 0.297157 1.53413
thorax -0.451542 0.137 1.88759
lowerneck -14.4711 -2.49137 -3.1538
upperneck 13.9144 -2.7198 -0.597334
head 6.65838 -1.57414 0.0472503
rclavicle 1.01629e-014 -7.95139e-016
rhumerus -36.2065 -19.5278 -73.0953
rradius 24.2041
rwrist 11.345
rhand -13.8686 33.282
rfingers 7.12502
rthumb 12.2558 3.6611
lclavicle 1.01629e-014 -7.95139e-016
lhumerus -35.2121 9.96922 83.4873
lradius 22.5974
lwrist -2.86218
lhand -22.4751 21.2782
lfingers 7.12502
lthumb 3.95002 51.2214
rfemur -15.0069 8.15071 24.2126
rtibia 27.2842
rfoot -11.8404 -6.86289
rtoes 14.0508
lfemur -22.1644 -1.34409 -17.5206
ltibia 66.764
lfoot 2.42631 -2.71951
ltoes -11.6387
